# xmcd CD database file
#
# Track frame offsets:
#	151
#	17204
#	32533
#	48990
#	65075
#	79132
#	94691
#	107400
#	119659
#	136416
#
# Disc length: 1989 seconds
#
# Revision: 0
# Processed by: cddbd v1.5.2PL0 Copyright (c) Steve Scherf et al.
# Submitted via: CDex 1.70beta2
#
DISCID=8207c30a
DTITLE=Dan Gannon - I Pray There's A Honky Tonk In Heaven
DYEAR=2001
DGENRE=Country
TTITLE0=The First Time
TTITLE1=For Every Man With A Broken Heart
TTITLE2=In Another Life
TTITLE3=Part Of The Game
TTITLE4=I Pray There's A Honky Tonk In Heaven
TTITLE5=If I Didn't Live Here
TTITLE6=I Can't Get There From Here
TTITLE7=Let's Go Back
TTITLE8=I Never Will
TTITLE9=This Is Where I Get Off
EXTD=YEAR: 2001
EXTT0=
EXTT1=
EXTT2=
EXTT3=
EXTT4=
EXTT5=
EXTT6=
EXTT7=
EXTT8=
EXTT9=
PLAYORDER=
